<svg xmlns="http://www.w3.org/2000/svg" xmlns:xlink="http://www.w3.org/1999/xlink" width="500" zoomAndPan="magnify" viewBox="0 0 375 374.999991" height="500" preserveAspectRatio="xMidYMid meet" version="1.2"><defs><clipPath id="1903ea4f8d"><path d="M 130.089844 88.210938 L 244.839844 88.210938 L 244.839844 238.210938 L 130.089844 238.210938 Z M 130.089844 88.210938 "/></clipPath></defs><g id="8006b12703"><g clip-rule="nonzero" clip-path="url(#1903ea4f8d)"><path style=" stroke:none;fill-rule:nonzero;fill:#000000;fill-opacity:1;" d="M 244.816406 123.4375 L 244.816406 167.59375 L 211.09375 167.59375 L 211.09375 121.949219 L 130.117188 121.949219 L 130.117188 88.210938 L 210.09375 88.210938 C 216.304688 94.59375 232.484375 110.992188 244.816406 123.4375 Z M 130.117188 204.515625 L 163.835938 238.214844 L 163.835938 201.332031 L 211.097656 201.332031 L 211.097656 167.59375 L 130.117188 167.59375 Z M 130.117188 204.515625 "/></g><g style="fill:#000000;fill-opacity:1;"><g transform="translate(70.929811, 279.088458)"><path style="stroke:none" d="M 2.359375 0 L 2.359375 -19.59375 L 10.03125 -19.59375 C 11.613281 -19.59375 12.984375 -19.300781 14.140625 -18.71875 C 15.296875 -18.144531 16.195312 -17.328125 16.84375 -16.265625 C 17.488281 -15.203125 17.8125 -13.953125 17.8125 -12.515625 C 17.8125 -11.097656 17.488281 -9.859375 16.84375 -8.796875 C 16.195312 -7.734375 15.296875 -6.910156 14.140625 -6.328125 C 12.984375 -5.742188 11.613281 -5.453125 10.03125 -5.453125 L 6.796875 -5.453125 L 6.796875 0 Z M 6.78125 -9.296875 L 9.65625 -9.296875 C 10.8125 -9.296875 11.703125 -9.570312 12.328125 -10.125 C 12.953125 -10.675781 13.265625 -11.460938 13.265625 -12.484375 C 13.265625 -13.515625 12.953125 -14.304688 12.328125 -14.859375 C 11.703125 -15.421875 10.8125 -15.703125 9.65625 -15.703125 L 6.78125 -15.703125 Z M 6.78125 -9.296875 "/></g></g><g style="fill:#000000;fill-opacity:1;"><g transform="translate(94.391262, 279.088458)"><path style="stroke:none" d="M 2.359375 0 L 2.359375 -19.59375 L 10.71875 -19.59375 C 12.21875 -19.59375 13.515625 -19.320312 14.609375 -18.78125 C 15.710938 -18.238281 16.5625 -17.460938 17.15625 -16.453125 C 17.757812 -15.453125 18.0625 -14.253906 18.0625 -12.859375 C 18.0625 -11.421875 17.734375 -10.179688 17.078125 -9.140625 C 16.421875 -8.109375 15.507812 -7.328125 14.34375 -6.796875 L 18.390625 0 L 13.25 0 L 9.75 -6.109375 L 6.796875 -6.109375 L 6.796875 0 Z M 6.75 -9.859375 L 10.140625 -9.859375 C 11.234375 -9.859375 12.070312 -10.113281 12.65625 -10.625 C 13.25 -11.132812 13.546875 -11.867188 13.546875 -12.828125 C 13.546875 -13.773438 13.25 -14.503906 12.65625 -15.015625 C 12.070312 -15.535156 11.234375 -15.796875 10.140625 -15.796875 L 6.75 -15.796875 Z M 6.75 -9.859375 "/></g></g><g style="fill:#000000;fill-opacity:1;"><g transform="translate(118.944559, 279.088458)"><path style="stroke:none" d="M 11.640625 0.390625 C 9.609375 0.390625 7.800781 -0.0390625 6.21875 -0.90625 C 4.644531 -1.78125 3.414062 -2.976562 2.53125 -4.5 C 1.644531 -6.03125 1.203125 -7.796875 1.203125 -9.796875 C 1.203125 -11.796875 1.644531 -13.5625 2.53125 -15.09375 C 3.414062 -16.625 4.644531 -17.820312 6.21875 -18.6875 C 7.800781 -19.550781 9.609375 -19.984375 11.640625 -19.984375 C 13.703125 -19.984375 15.515625 -19.550781 17.078125 -18.6875 C 18.648438 -17.820312 19.882812 -16.625 20.78125 -15.09375 C 21.675781 -13.5625 22.125 -11.796875 22.125 -9.796875 C 22.125 -7.796875 21.675781 -6.03125 20.78125 -4.5 C 19.882812 -2.976562 18.648438 -1.78125 17.078125 -0.90625 C 15.515625 -0.0390625 13.703125 0.390625 11.640625 0.390625 Z M 5.734375 -9.796875 C 5.734375 -8.617188 5.984375 -7.582031 6.484375 -6.6875 C 6.992188 -5.789062 7.691406 -5.09375 8.578125 -4.59375 C 9.460938 -4.09375 10.484375 -3.84375 11.640625 -3.84375 C 12.816406 -3.84375 13.847656 -4.09375 14.734375 -4.59375 C 15.628906 -5.09375 16.320312 -5.789062 16.8125 -6.6875 C 17.3125 -7.582031 17.5625 -8.617188 17.5625 -9.796875 C 17.5625 -10.972656 17.3125 -12.007812 16.8125 -12.90625 C 16.320312 -13.800781 15.628906 -14.5 14.734375 -15 C 13.847656 -15.507812 12.816406 -15.765625 11.640625 -15.765625 C 10.484375 -15.765625 9.460938 -15.507812 8.578125 -15 C 7.691406 -14.5 6.992188 -13.800781 6.484375 -12.90625 C 5.984375 -12.007812 5.734375 -10.972656 5.734375 -9.796875 Z M 5.734375 -9.796875 "/></g></g><g style="fill:#000000;fill-opacity:1;"><g transform="translate(147.10936, 279.088458)"><path style="stroke:none" d="M 2.359375 0 L 2.359375 -19.59375 L 10.109375 -19.59375 C 12.179688 -19.59375 13.988281 -19.179688 15.53125 -18.359375 C 17.082031 -17.546875 18.285156 -16.398438 19.140625 -14.921875 C 20.003906 -13.453125 20.4375 -11.742188 20.4375 -9.796875 C 20.4375 -7.835938 20.003906 -6.125 19.140625 -4.65625 C 18.285156 -3.195312 17.082031 -2.054688 15.53125 -1.234375 C 13.988281 -0.410156 12.179688 0 10.109375 0 Z M 6.796875 -4.09375 L 10.03125 -4.09375 C 11.1875 -4.09375 12.203125 -4.328125 13.078125 -4.796875 C 13.953125 -5.273438 14.632812 -5.941406 15.125 -6.796875 C 15.625 -7.660156 15.875 -8.660156 15.875 -9.796875 C 15.875 -10.953125 15.625 -11.953125 15.125 -12.796875 C 14.632812 -13.648438 13.945312 -14.316406 13.0625 -14.796875 C 12.175781 -15.273438 11.144531 -15.515625 9.96875 -15.515625 L 6.796875 -15.515625 Z M 6.796875 -4.09375 "/></g></g><g style="fill:#000000;fill-opacity:1;"><g transform="translate(173.566394, 279.088458)"><path style="stroke:none" d="M 10.359375 0.390625 C 8.660156 0.390625 7.195312 0.0507812 5.96875 -0.625 C 4.75 -1.3125 3.804688 -2.285156 3.140625 -3.546875 C 2.484375 -4.804688 2.15625 -6.3125 2.15625 -8.0625 L 2.15625 -19.59375 L 6.609375 -19.59375 L 6.609375 -8.375 C 6.609375 -5.351562 7.859375 -3.84375 10.359375 -3.84375 C 12.859375 -3.84375 14.109375 -5.351562 14.109375 -8.375 L 14.109375 -19.59375 L 18.5625 -19.59375 L 18.5625 -8.0625 C 18.5625 -6.3125 18.226562 -4.804688 17.5625 -3.546875 C 16.90625 -2.285156 15.960938 -1.3125 14.734375 -0.625 C 13.515625 0.0507812 12.054688 0.390625 10.359375 0.390625 Z M 10.359375 0.390625 "/></g></g><g style="fill:#000000;fill-opacity:1;"><g transform="translate(199.127549, 279.088458)"><path style="stroke:none" d="M 11.34375 0.390625 C 9.363281 0.390625 7.609375 -0.0390625 6.078125 -0.90625 C 4.546875 -1.78125 3.347656 -2.976562 2.484375 -4.5 C 1.628906 -6.03125 1.203125 -7.796875 1.203125 -9.796875 C 1.203125 -11.796875 1.628906 -13.5625 2.484375 -15.09375 C 3.347656 -16.625 4.539062 -17.820312 6.0625 -18.6875 C 7.582031 -19.550781 9.332031 -19.984375 11.3125 -19.984375 C 12.96875 -19.984375 14.488281 -19.664062 15.875 -19.03125 C 17.257812 -18.40625 18.421875 -17.507812 19.359375 -16.34375 C 20.304688 -15.1875 20.96875 -13.828125 21.34375 -12.265625 L 16.75 -12.265625 C 16.375 -13.347656 15.707031 -14.203125 14.75 -14.828125 C 13.800781 -15.453125 12.703125 -15.765625 11.453125 -15.765625 C 10.347656 -15.765625 9.363281 -15.507812 8.5 -15 C 7.632812 -14.5 6.957031 -13.800781 6.46875 -12.90625 C 5.976562 -12.007812 5.734375 -10.972656 5.734375 -9.796875 C 5.734375 -8.617188 5.976562 -7.582031 6.46875 -6.6875 C 6.957031 -5.789062 7.628906 -5.09375 8.484375 -4.59375 C 9.335938 -4.09375 10.316406 -3.84375 11.421875 -3.84375 C 12.710938 -3.84375 13.84375 -4.171875 14.8125 -4.828125 C 15.78125 -5.492188 16.472656 -6.382812 16.890625 -7.5 L 21.46875 -7.5 C 21.15625 -5.914062 20.519531 -4.53125 19.5625 -3.34375 C 18.613281 -2.15625 17.4375 -1.234375 16.03125 -0.578125 C 14.625 0.0664062 13.0625 0.390625 11.34375 0.390625 Z M 11.34375 0.390625 "/></g></g><g style="fill:#000000;fill-opacity:1;"><g transform="translate(226.564449, 279.088458)"><path style="stroke:none" d="M 7.0625 0 L 7.0625 -15.421875 L 0.84375 -15.421875 L 0.84375 -19.59375 L 17.71875 -19.59375 L 17.71875 -15.421875 L 11.515625 -15.421875 L 11.515625 0 Z M 7.0625 0 "/></g></g><g style="fill:#000000;fill-opacity:1;"><g transform="translate(249.969903, 279.088458)"><path style="stroke:none" d="M 2.359375 0 L 2.359375 -19.59375 L 6.796875 -19.59375 L 6.796875 0 Z M 2.359375 0 "/></g></g><g style="fill:#000000;fill-opacity:1;"><g transform="translate(263.968647, 279.088458)"><path style="stroke:none" d="M 2.359375 0 L 2.359375 -19.59375 L 14.640625 -19.59375 L 14.640625 -15.5625 L 6.796875 -15.5625 L 6.796875 -10.671875 L 13.921875 -10.671875 L 13.921875 -6.75 L 6.796875 -6.75 L 6.796875 0 Z M 2.359375 0 "/></g></g><g style="fill:#000000;fill-opacity:1;"><g transform="translate(284.686457, 279.088458)"><path style="stroke:none" d="M 7.46875 0 L 7.46875 -6.859375 L 0.25 -19.59375 L 5.3125 -19.59375 L 7.75 -15.0625 L 9.71875 -11.515625 L 11.640625 -15.0625 L 14.0625 -19.59375 L 19.125 -19.59375 L 11.921875 -6.921875 L 11.921875 0 Z M 7.46875 0 "/></g></g></g></svg>