<svg xmlns="http://www.w3.org/2000/svg" xmlns:xlink="http://www.w3.org/1999/xlink" width="500" zoomAndPan="magnify" viewBox="0 0 375 374.999991" height="500" preserveAspectRatio="xMidYMid meet" version="1.2"><defs><clipPath id="30e733f413"><path d="M 130.089844 79.867188 L 244.839844 79.867188 L 244.839844 229.867188 L 130.089844 229.867188 Z M 130.089844 79.867188 "/></clipPath></defs><g id="0b85d133d1"><g clip-rule="nonzero" clip-path="url(#30e733f413)"><path style=" stroke:none;fill-rule:nonzero;fill:#000000;fill-opacity:1;" d="M 244.816406 115.09375 L 244.816406 159.25 L 211.09375 159.25 L 211.09375 113.605469 L 130.117188 113.605469 L 130.117188 79.867188 L 210.09375 79.867188 C 216.304688 86.253906 232.484375 102.648438 244.816406 115.09375 Z M 130.117188 196.171875 L 163.835938 229.871094 L 163.835938 192.988281 L 211.097656 192.988281 L 211.097656 159.25 L 130.117188 159.25 Z M 130.117188 196.171875 "/></g><g style="fill:#000000;fill-opacity:1;"><g transform="translate(109.847777, 270.745295)"><path style="stroke:none" d="M 2.359375 0 L 2.359375 -19.59375 L 10.03125 -19.59375 C 11.613281 -19.59375 12.984375 -19.300781 14.140625 -18.71875 C 15.296875 -18.144531 16.195312 -17.328125 16.84375 -16.265625 C 17.488281 -15.203125 17.8125 -13.953125 17.8125 -12.515625 C 17.8125 -11.097656 17.488281 -9.859375 16.84375 -8.796875 C 16.195312 -7.734375 15.296875 -6.910156 14.140625 -6.328125 C 12.984375 -5.742188 11.613281 -5.453125 10.03125 -5.453125 L 6.796875 -5.453125 L 6.796875 0 Z M 6.78125 -9.296875 L 9.65625 -9.296875 C 10.8125 -9.296875 11.703125 -9.570312 12.328125 -10.125 C 12.953125 -10.675781 13.265625 -11.460938 13.265625 -12.484375 C 13.265625 -13.515625 12.953125 -14.304688 12.328125 -14.859375 C 11.703125 -15.421875 10.8125 -15.703125 9.65625 -15.703125 L 6.78125 -15.703125 Z M 6.78125 -9.296875 "/></g></g><g style="fill:#000000;fill-opacity:1;"><g transform="translate(133.309228, 270.745295)"><path style="stroke:none" d="M 0.25 0 L 8.03125 -19.59375 L 12.40625 -19.59375 L 20.1875 0 L 15.421875 0 L 14.109375 -3.390625 L 6.328125 -3.390625 L 5.015625 0 Z M 7.46875 -6.890625 L 12.984375 -6.890625 L 10.21875 -14.0625 Z M 7.46875 -6.890625 "/></g></g><g style="fill:#000000;fill-opacity:1;"><g transform="translate(158.590427, 270.745295)"><path style="stroke:none" d="M 2.359375 0 L 2.359375 -19.59375 L 6.796875 -19.59375 L 6.796875 -4.171875 L 15.375 -4.171875 L 15.375 0 Z M 2.359375 0 "/></g></g><g style="fill:#000000;fill-opacity:1;"><g transform="translate(179.560213, 270.745295)"><path style="stroke:none" d="M 2.359375 0 L 2.359375 -19.59375 L 15.234375 -19.59375 L 15.234375 -15.84375 L 6.78125 -15.84375 L 6.78125 -11.78125 L 14.46875 -11.78125 L 14.46875 -8.0625 L 6.78125 -8.0625 L 6.78125 -3.78125 L 15.546875 -3.78125 L 15.546875 0 Z M 2.359375 0 "/></g></g><g style="fill:#000000;fill-opacity:1;"><g transform="translate(201.369881, 270.745295)"><path style="stroke:none" d="M 7.0625 0 L 7.0625 -15.421875 L 0.84375 -15.421875 L 0.84375 -19.59375 L 17.71875 -19.59375 L 17.71875 -15.421875 L 11.515625 -15.421875 L 11.515625 0 Z M 7.0625 0 "/></g></g><g style="fill:#000000;fill-opacity:1;"><g transform="translate(224.775336, 270.745295)"><path style="stroke:none" d="M 7.0625 0 L 7.0625 -15.421875 L 0.84375 -15.421875 L 0.84375 -19.59375 L 17.71875 -19.59375 L 17.71875 -15.421875 L 11.515625 -15.421875 L 11.515625 0 Z M 7.0625 0 "/></g></g><g style="fill:#000000;fill-opacity:1;"><g transform="translate(248.18079, 270.745295)"><path style="stroke:none" d="M 2.359375 0 L 2.359375 -19.59375 L 15.234375 -19.59375 L 15.234375 -15.84375 L 6.78125 -15.84375 L 6.78125 -11.78125 L 14.46875 -11.78125 L 14.46875 -8.0625 L 6.78125 -8.0625 L 6.78125 -3.78125 L 15.546875 -3.78125 L 15.546875 0 Z M 2.359375 0 "/></g></g><g style="fill:#000000;fill-opacity:1;"><g transform="translate(111.526784, 290.539433)"><path style="stroke:none" d="M 1.578125 0 L 1.578125 -9.796875 L 4.6875 -9.796875 C 5.820312 -9.796875 6.707031 -9.515625 7.34375 -8.953125 C 7.976562 -8.390625 8.296875 -7.597656 8.296875 -6.578125 C 8.296875 -5.554688 7.976562 -4.765625 7.34375 -4.203125 C 6.707031 -3.640625 5.820312 -3.359375 4.6875 -3.359375 L 2.4375 -3.359375 L 2.4375 0 Z M 2.4375 -4.140625 L 4.671875 -4.140625 C 6.523438 -4.140625 7.453125 -4.945312 7.453125 -6.5625 C 7.453125 -8.175781 6.523438 -8.984375 4.671875 -8.984375 L 2.4375 -8.984375 Z M 2.4375 -4.140625 "/></g></g><g style="fill:#000000;fill-opacity:1;"><g transform="translate(124.933789, 290.539433)"><path style="stroke:none" d="M 1.578125 0 L 1.578125 -9.796875 L 5.203125 -9.796875 C 5.867188 -9.796875 6.441406 -9.671875 6.921875 -9.421875 C 7.410156 -9.171875 7.789062 -8.816406 8.0625 -8.359375 C 8.332031 -7.910156 8.46875 -7.375 8.46875 -6.75 C 8.46875 -5.9375 8.242188 -5.265625 7.796875 -4.734375 C 7.347656 -4.210938 6.738281 -3.882812 5.96875 -3.75 L 8.625 0 L 7.609375 0 L 4.96875 -3.6875 L 2.4375 -3.6875 L 2.4375 0 Z M 2.4375 -4.5 L 5.125 -4.5 C 5.894531 -4.5 6.5 -4.695312 6.9375 -5.09375 C 7.382812 -5.5 7.609375 -6.050781 7.609375 -6.75 C 7.609375 -7.4375 7.382812 -7.976562 6.9375 -8.375 C 6.5 -8.78125 5.894531 -8.984375 5.125 -8.984375 L 2.4375 -8.984375 Z M 2.4375 -4.5 "/></g></g><g style="fill:#000000;fill-opacity:1;"><g transform="translate(138.956451, 290.539433)"><path style="stroke:none" d="M 5.953125 0.1875 C 4.960938 0.1875 4.085938 -0.0234375 3.328125 -0.453125 C 2.566406 -0.890625 1.96875 -1.488281 1.53125 -2.25 C 1.101562 -3.019531 0.890625 -3.90625 0.890625 -4.90625 C 0.890625 -5.894531 1.101562 -6.769531 1.53125 -7.53125 C 1.96875 -8.300781 2.566406 -8.898438 3.328125 -9.328125 C 4.085938 -9.765625 4.960938 -9.984375 5.953125 -9.984375 C 6.953125 -9.984375 7.832031 -9.765625 8.59375 -9.328125 C 9.351562 -8.898438 9.941406 -8.300781 10.359375 -7.53125 C 10.785156 -6.769531 11 -5.894531 11 -4.90625 C 11 -3.90625 10.785156 -3.019531 10.359375 -2.25 C 9.941406 -1.488281 9.351562 -0.890625 8.59375 -0.453125 C 7.832031 -0.0234375 6.953125 0.1875 5.953125 0.1875 Z M 1.765625 -4.90625 C 1.765625 -4.070312 1.941406 -3.332031 2.296875 -2.6875 C 2.648438 -2.050781 3.140625 -1.554688 3.765625 -1.203125 C 4.398438 -0.847656 5.128906 -0.671875 5.953125 -0.671875 C 6.785156 -0.671875 7.515625 -0.847656 8.140625 -1.203125 C 8.773438 -1.554688 9.269531 -2.050781 9.625 -2.6875 C 9.976562 -3.332031 10.15625 -4.070312 10.15625 -4.90625 C 10.15625 -5.738281 9.976562 -6.472656 9.625 -7.109375 C 9.269531 -7.742188 8.773438 -8.238281 8.140625 -8.59375 C 7.515625 -8.945312 6.785156 -9.125 5.953125 -9.125 C 5.128906 -9.125 4.398438 -8.945312 3.765625 -8.59375 C 3.140625 -8.238281 2.648438 -7.742188 2.296875 -7.109375 C 1.941406 -6.472656 1.765625 -5.738281 1.765625 -4.90625 Z M 1.765625 -4.90625 "/></g></g><g style="fill:#000000;fill-opacity:1;"><g transform="translate(155.301817, 290.539433)"><path style="stroke:none" d="M 1.578125 0 L 1.578125 -9.796875 L 4.671875 -9.796875 C 5.722656 -9.796875 6.628906 -9.59375 7.390625 -9.1875 C 8.148438 -8.78125 8.734375 -8.210938 9.140625 -7.484375 C 9.554688 -6.753906 9.765625 -5.894531 9.765625 -4.90625 C 9.765625 -3.925781 9.554688 -3.066406 9.140625 -2.328125 C 8.734375 -1.585938 8.148438 -1.015625 7.390625 -0.609375 C 6.628906 -0.203125 5.722656 0 4.671875 0 Z M 2.4375 -0.8125 L 4.671875 -0.8125 C 5.546875 -0.8125 6.296875 -0.976562 6.921875 -1.3125 C 7.554688 -1.644531 8.046875 -2.117188 8.390625 -2.734375 C 8.734375 -3.347656 8.90625 -4.070312 8.90625 -4.90625 C 8.90625 -5.726562 8.734375 -6.445312 8.390625 -7.0625 C 8.046875 -7.675781 7.554688 -8.148438 6.921875 -8.484375 C 6.285156 -8.816406 5.523438 -8.984375 4.640625 -8.984375 L 2.4375 -8.984375 Z M 2.4375 -0.8125 "/></g></g><g style="fill:#000000;fill-opacity:1;"><g transform="translate(170.415868, 290.539433)"><path style="stroke:none" d="M 5.15625 0.171875 C 4.007812 0.171875 3.101562 -0.179688 2.4375 -0.890625 C 1.78125 -1.609375 1.453125 -2.597656 1.453125 -3.859375 L 1.453125 -9.796875 L 2.296875 -9.796875 L 2.296875 -3.90625 C 2.296875 -2.863281 2.546875 -2.0625 3.046875 -1.5 C 3.546875 -0.9375 4.25 -0.65625 5.15625 -0.65625 C 6.070312 -0.65625 6.773438 -0.9375 7.265625 -1.5 C 7.765625 -2.0625 8.015625 -2.863281 8.015625 -3.90625 L 8.015625 -9.796875 L 8.84375 -9.796875 L 8.84375 -3.859375 C 8.84375 -2.597656 8.515625 -1.609375 7.859375 -0.890625 C 7.203125 -0.179688 6.300781 0.171875 5.15625 0.171875 Z M 5.15625 0.171875 "/></g></g><g style="fill:#000000;fill-opacity:1;"><g transform="translate(185.166122, 290.539433)"><path style="stroke:none" d="M 5.859375 0.1875 C 4.898438 0.1875 4.046875 -0.03125 3.296875 -0.46875 C 2.554688 -0.90625 1.96875 -1.503906 1.53125 -2.265625 C 1.101562 -3.035156 0.890625 -3.914062 0.890625 -4.90625 C 0.890625 -5.894531 1.101562 -6.769531 1.53125 -7.53125 C 1.96875 -8.300781 2.554688 -8.898438 3.296875 -9.328125 C 4.046875 -9.765625 4.898438 -9.984375 5.859375 -9.984375 C 6.609375 -9.984375 7.300781 -9.84375 7.9375 -9.5625 C 8.570312 -9.289062 9.117188 -8.90625 9.578125 -8.40625 C 10.035156 -7.90625 10.367188 -7.3125 10.578125 -6.625 L 9.6875 -6.625 C 9.40625 -7.394531 8.921875 -8.003906 8.234375 -8.453125 C 7.554688 -8.898438 6.769531 -9.125 5.875 -9.125 C 5.082031 -9.125 4.375 -8.945312 3.75 -8.59375 C 3.132812 -8.238281 2.648438 -7.742188 2.296875 -7.109375 C 1.941406 -6.472656 1.765625 -5.738281 1.765625 -4.90625 C 1.765625 -4.070312 1.941406 -3.332031 2.296875 -2.6875 C 2.648438 -2.050781 3.132812 -1.554688 3.75 -1.203125 C 4.375 -0.847656 5.082031 -0.671875 5.875 -0.671875 C 6.789062 -0.671875 7.597656 -0.90625 8.296875 -1.375 C 9.003906 -1.84375 9.492188 -2.484375 9.765625 -3.296875 L 10.671875 -3.296875 C 10.472656 -2.585938 10.140625 -1.972656 9.671875 -1.453125 C 9.203125 -0.929688 8.644531 -0.523438 8 -0.234375 C 7.351562 0.046875 6.640625 0.1875 5.859375 0.1875 Z M 5.859375 0.1875 "/></g></g><g style="fill:#000000;fill-opacity:1;"><g transform="translate(201.1197, 290.539433)"><path style="stroke:none" d="M 3.90625 0 L 3.90625 -8.984375 L 0.53125 -8.984375 L 0.53125 -9.796875 L 8.140625 -9.796875 L 8.140625 -8.984375 L 4.75 -8.984375 L 4.75 0 Z M 3.90625 0 "/></g></g><g style="fill:#000000;fill-opacity:1;"><g transform="translate(214.232866, 290.539433)"><path style="stroke:none" d="M 1.578125 0 L 1.578125 -9.796875 L 2.4375 -9.796875 L 2.4375 0 Z M 1.578125 0 "/></g></g><g style="fill:#000000;fill-opacity:1;"><g transform="translate(222.700623, 290.539433)"><path style="stroke:none" d="M 5.953125 0.1875 C 4.960938 0.1875 4.085938 -0.0234375 3.328125 -0.453125 C 2.566406 -0.890625 1.96875 -1.488281 1.53125 -2.25 C 1.101562 -3.019531 0.890625 -3.90625 0.890625 -4.90625 C 0.890625 -5.894531 1.101562 -6.769531 1.53125 -7.53125 C 1.96875 -8.300781 2.566406 -8.898438 3.328125 -9.328125 C 4.085938 -9.765625 4.960938 -9.984375 5.953125 -9.984375 C 6.953125 -9.984375 7.832031 -9.765625 8.59375 -9.328125 C 9.351562 -8.898438 9.941406 -8.300781 10.359375 -7.53125 C 10.785156 -6.769531 11 -5.894531 11 -4.90625 C 11 -3.90625 10.785156 -3.019531 10.359375 -2.25 C 9.941406 -1.488281 9.351562 -0.890625 8.59375 -0.453125 C 7.832031 -0.0234375 6.953125 0.1875 5.953125 0.1875 Z M 1.765625 -4.90625 C 1.765625 -4.070312 1.941406 -3.332031 2.296875 -2.6875 C 2.648438 -2.050781 3.140625 -1.554688 3.765625 -1.203125 C 4.398438 -0.847656 5.128906 -0.671875 5.953125 -0.671875 C 6.785156 -0.671875 7.515625 -0.847656 8.140625 -1.203125 C 8.773438 -1.554688 9.269531 -2.050781 9.625 -2.6875 C 9.976562 -3.332031 10.15625 -4.070312 10.15625 -4.90625 C 10.15625 -5.738281 9.976562 -6.472656 9.625 -7.109375 C 9.269531 -7.742188 8.773438 -8.238281 8.140625 -8.59375 C 7.515625 -8.945312 6.785156 -9.125 5.953125 -9.125 C 5.128906 -9.125 4.398438 -8.945312 3.765625 -8.59375 C 3.140625 -8.238281 2.648438 -7.742188 2.296875 -7.109375 C 1.941406 -6.472656 1.765625 -5.738281 1.765625 -4.90625 Z M 1.765625 -4.90625 "/></g></g><g style="fill:#000000;fill-opacity:1;"><g transform="translate(239.045989, 290.539433)"><path style="stroke:none" d="M 1.578125 0 L 1.578125 -9.796875 L 2.375 -9.796875 L 8.34375 -1.46875 L 8.34375 -9.796875 L 9.1875 -9.796875 L 9.1875 0 L 8.390625 0 L 2.421875 -8.34375 L 2.421875 0 Z M 1.578125 0 "/></g></g><g style="fill:#000000;fill-opacity:1;"><g transform="translate(254.25799, 290.539433)"><path style="stroke:none" d="M 4.734375 0.1875 C 3.984375 0.1875 3.332031 0.0625 2.78125 -0.1875 C 2.226562 -0.445312 1.796875 -0.804688 1.484375 -1.265625 C 1.171875 -1.734375 1.003906 -2.28125 0.984375 -2.90625 L 1.8125 -2.90625 C 1.863281 -2.1875 2.148438 -1.625 2.671875 -1.21875 C 3.191406 -0.820312 3.878906 -0.625 4.734375 -0.625 C 5.535156 -0.625 6.171875 -0.789062 6.640625 -1.125 C 7.109375 -1.457031 7.34375 -1.910156 7.34375 -2.484375 C 7.34375 -2.992188 7.125 -3.410156 6.6875 -3.734375 C 6.257812 -4.054688 5.550781 -4.320312 4.5625 -4.53125 C 3.363281 -4.8125 2.492188 -5.171875 1.953125 -5.609375 C 1.410156 -6.046875 1.140625 -6.632812 1.140625 -7.375 C 1.140625 -8.15625 1.4375 -8.785156 2.03125 -9.265625 C 2.625 -9.742188 3.445312 -9.984375 4.5 -9.984375 C 5.582031 -9.984375 6.429688 -9.71875 7.046875 -9.1875 C 7.671875 -8.664062 8 -7.9375 8.03125 -7 L 7.203125 -7 C 7.160156 -7.6875 6.898438 -8.21875 6.421875 -8.59375 C 5.953125 -8.976562 5.3125 -9.171875 4.5 -9.171875 C 3.695312 -9.171875 3.078125 -9.003906 2.640625 -8.671875 C 2.203125 -8.347656 1.984375 -7.914062 1.984375 -7.375 C 1.984375 -6.894531 2.191406 -6.492188 2.609375 -6.171875 C 3.023438 -5.847656 3.75 -5.566406 4.78125 -5.328125 C 6.019531 -5.046875 6.898438 -4.675781 7.421875 -4.21875 C 7.941406 -3.769531 8.203125 -3.191406 8.203125 -2.484375 C 8.203125 -1.671875 7.890625 -1.019531 7.265625 -0.53125 C 6.640625 -0.0507812 5.796875 0.1875 4.734375 0.1875 Z M 4.734375 0.1875 "/></g></g></g></svg>